<svg id="visual" viewBox="0 0 900 600" width="900" height="600" xmlns="http://www.w3.org/2000/svg" xmlns:xlink="http://www.w3.org/1999/xlink" version="1.1"><g transform="translate(445.8822301910625 299.99023194169183)"><path d="M139.8 -195C184.9 -159.8 227.5 -123.8 239.4 -79.5C251.4 -35.3 232.7 17.1 212.3 65.6C191.8 114 169.7 158.6 134 196C98.4 233.4 49.2 263.7 -4.8 270.3C-58.8 276.9 -117.6 259.8 -158.8 224.2C-200 188.6 -223.6 134.5 -231.6 81.9C-239.7 29.3 -232.1 -21.8 -219 -73.9C-205.9 -126 -187.3 -179.1 -149.9 -216.8C-112.5 -254.5 -56.2 -276.7 -4.4 -270.7C47.4 -264.6 94.8 -230.2 139.8 -195" fill="#009473"></path></g></svg>