<svg id="visual" viewBox="0 0 900 600" width="900" height="600" xmlns="http://www.w3.org/2000/svg" xmlns:xlink="http://www.w3.org/1999/xlink" version="1.1"><rect x="0" y="0" width="900" height="600" fill="#f6f6f6"></rect><path d="M0 474L18.8 464.2C37.7 454.3 75.3 434.7 112.8 417.3C150.3 400 187.7 385 225.2 388.2C262.7 391.3 300.3 412.7 337.8 416.3C375.3 420 412.7 406 450.2 414.5C487.7 423 525.3 454 562.8 470.2C600.3 486.3 637.7 487.7 675.2 486C712.7 484.3 750.3 479.7 787.8 468.2C825.3 456.7 862.7 438.3 881.3 429.2L900 420L900 601L881.3 601C862.7 601 825.3 601 787.8 601C750.3 601 712.7 601 675.2 601C637.7 601 600.3 601 562.8 601C525.3 601 487.7 601 450.2 601C412.7 601 375.3 601 337.8 601C300.3 601 262.7 601 225.2 601C187.7 601 150.3 601 112.8 601C75.3 601 37.7 601 18.8 601L0 601Z" fill="#dde9fd" stroke-linecap="round" stroke-linejoin="miter"></path></svg>